<?xml version="1.0" encoding="utf-8"?>
<!-- Generator: Adobe Illustrator 25.2.0, SVG Export Plug-In . SVG Version: 6.00 Build 0)  -->
<svg version="1.1" id="レイヤー_1" xmlns="http://www.w3.org/2000/svg" xmlns:xlink="http://www.w3.org/1999/xlink" x="0px"
	 y="0px" viewBox="0 0 275 94" style="enable-background:new 0 0 275 94;" xml:space="preserve">
<style type="text/css">
	.st0{fill:#E4006E;}
	.st1{fill:#FFFFFF;}
	.st2{fill:#231815;}
</style>
<g>
	<g>
		<g>
			<g>
				<path class="st0" d="M272.3,55.5l-13.7-19.8c-3.5-4.9-6.6-6.6-13.6-6.6H5.8c-3.8,0-6.3,3.3-4.6,7l8.9,18.4
					c1.3,2.4,1.8,4.7,1.8,6.9c0,2.2-0.6,4.6-1.8,6.9L1.2,86.8c-1.7,3.7,0.8,7,4.6,7H245c7,0,10.1-1.7,13.6-6.6l13.7-19.8
					c1.2-1.7,1.7-3.8,1.7-5.9C274,59.3,273.5,57.2,272.3,55.5z"/>
				<path class="st1" d="M66.3,68.8c0,0.8-0.5,1.2-0.8,1.4c-8.7,7.4-23.8,8.3-29.3,8.3c-0.1,0-4.5,0-4.5,0c-1.9,0-3-1.2-3-3V45.9
					c0-0.7,0.3-1,0.8-1h10c0.4,0,0.7,0.3,0.7,0.8v24.1c0,0.7,0.2,1.3,1.1,1.3c6.4,0,16.1-2.5,23.7-8.9c0.7-0.6,1.3,0,1.3,0.4V68.8z
					 M96.4,77.3c-0.5,0-1.1,0.1-1.6,0.1H72.1c-0.4,0-0.7-0.3-0.7-0.7v-5.2c0-0.4,0.3-0.7,0.7-0.8H93c4.4,0,6-4.8,6-9.5
					c0-4.7-1.5-9.4-6-9.4H72.1c-0.4,0-0.7-0.3-0.7-0.8v-5.2c0-0.4,0.3-0.8,0.7-0.8h22.7c0.6,0,1.1,0,1.6,0.1
					c8,0.8,13.6,8.2,13.6,16.1C110.1,69.1,104.4,76.5,96.4,77.3z M159.8,50.1c0,0.4-0.3,0.8-0.8,0.8h-12c0,0,0,0,0,0
					c-0.4,0-0.8,0.3-0.8,0.7v5.7c0,0.4,0.3,0.7,0.8,0.7h12c0.4,0,0.8,0.3,0.8,0.8v4.4c0,0.4-0.3,0.8-0.8,0.8h-12c0,0,0,0,0,0
					c-0.4,0-0.7,0.3-0.8,0.7c-0.1,3.5-2.3,12.7-15.9,12.7h-12.2c-0.4,0-0.8-0.3-0.8-0.7v-4.7c0-0.4,0.3-0.7,0.8-0.7h10.7
					c5.2,0,5.6-4.4,5.7-6.4c0-0.6-0.4-0.7-0.8-0.7h-15.7c-0.4,0-0.8-0.3-0.8-0.8v-4.4c0-0.4,0.3-0.8,0.8-0.8h15.7
					c0.4,0,0.8-0.3,0.8-0.7v-5.7c0-0.4-0.3-0.7-0.7-0.7h-15.7c-0.4,0-0.8-0.3-0.8-0.8v-4.4c0-0.4,0.3-0.8,0.8-0.8h40.9
					c0.4,0,0.8,0.3,0.8,0.8V50.1z M187.3,76.2c-0.3,0.1-1.4,0.3-3.3,0.3h-15.7c-0.4,0-0.7-0.3-0.7-0.7v-3.8c0-0.4,0.3-0.7,0.7-0.7
					h14.4c0.9,0,2-0.3,2.5-0.6c1.8-1,1.7-2.9,1.7-4.2c0-0.4-0.4-0.6-0.7-0.6h-18c-0.4,0-0.7-0.3-0.7-0.7v-3.2c0-0.4,0.3-0.7,0.7-0.7
					h18c0.3,0,0.7-0.2,0.7-0.7c0-1.3,0-3.2-1.7-4.2c-0.5-0.3-1.6-0.6-2.5-0.6h-14.4c-0.4,0-0.7-0.3-0.7-0.7v-3.8
					c0-0.4,0.3-0.7,0.7-0.7h15.7c1.9,0,3.1,0.2,3.3,0.3c7.1,1.2,9.5,6.6,9.5,12.7C196.8,69.6,194.4,74.9,187.3,76.2z M247.5,60.3
					l-6.9,16.3c-0.2,0.5-0.6,0.8-1.2,0.8h-9.9c-0.7,0-0.8-0.6-0.6-1l7.8-19.3c0.5-1.3,0.7-2.5,0.4-3.5c-0.4-1.6-1.7-2.6-3.8-2.6
					h-9.1c-3,0-4.9,1.7-5.9,4.3c-0.1,0.2-3.2,8.4-3.7,9.6c-0.1,0.4-0.6,0.7-1,0.7h-10.3c-0.4,0-0.6-0.3-0.5-0.7c0,0,3.9-10.6,4.1-11
					c2.7-6,7.2-8.9,14.2-8.9h14.7C248.9,45,250,54.2,247.5,60.3z"/>
			</g>
		</g>
		<path class="st0" d="M268.5,82.6c-3.1,0-5.6,2.5-5.6,5.6c0,3.1,2.5,5.6,5.6,5.6c3.1,0,5.6-2.5,5.6-5.6
			C274.1,85.1,271.6,82.6,268.5,82.6z M268.5,93c-2.7,0-4.7-2.1-4.7-4.8c0-2.7,2-4.8,4.7-4.8c2.7,0,4.7,2.1,4.7,4.8
			C273.2,90.8,271.2,93,268.5,93z M271.1,86.8c0-0.6-0.2-1.1-0.6-1.4c-0.4-0.3-0.9-0.5-1.7-0.5h-2.6v6.7h0.9v-3h1.4l1.6,3h1l-1.6-3
			C270.4,88.4,271.1,87.8,271.1,86.8z M268.3,87.8h-1.2v-2.2h1.6c0.7,0,1.5,0.3,1.5,1.1c0,0.5-0.2,0.7-0.6,0.9
			C269.3,87.8,268.8,87.8,268.3,87.8z"/>
	</g>
</g>
<g>
	<path class="st2" d="M7,1.8c0,0.4,0,0.8-0.1,1.7c1,4.1,3.4,7.3,6.5,8.8l-0.1,0.5c-0.5,0-0.8,0.2-1.1,0.7C9.6,11.9,7.6,9,6.7,5.2
		c-0.5,4-3,7.2-6.4,8.3L0,13c2.5-1.3,4.3-3.4,5.1-6c0.4-1.2,0.6-2.9,0.7-5.2V0.5l1,0.1c0.4,0,0.6,0.1,0.6,0.4c0,0.2-0.1,0.3-0.4,0.4
		V1.8z"/>
	<path class="st2" d="M25.2,4.1c0-0.1,0-0.2,0-0.3c0,0,0-0.1,0-0.1c0-0.1,0.1-0.1,0.2-0.1c0.7,0,1.5,0.8,1.5,1.5
		c0,0.3-0.1,0.3-0.7,0.5c-1,0.3-3.2,1.2-4.4,1.8c-2,1-2.9,1.9-2.9,3c0,0.6,0.3,0.9,0.8,1.2c0.6,0.3,1.6,0.5,2.8,0.5
		c1.5,0,2.4-0.1,3.1-0.4c0.3-0.1,0.4-0.2,0.6-0.2c0.6,0,1.2,0.4,1.2,0.8c0,0.3-0.2,0.4-0.5,0.5c-0.6,0.2-2.2,0.3-3.7,0.3
		c-1.8,0-3-0.2-4-0.7c-0.8-0.4-1.3-1.2-1.3-2c0-0.9,0.5-1.9,1.3-2.5c0.5-0.4,0.8-0.6,1.8-1.2c-0.4-0.4-0.5-0.6-0.6-3.9
		c0-0.6-0.1-0.7-0.8-1.1c-0.1-0.1-0.1-0.1-0.1-0.2c0-0.2,0.3-0.3,0.8-0.3c0.8,0,1.7,0.4,1.7,0.8c0,0.1,0,0.1-0.1,0.4
		c-0.1,0.3-0.2,0.8-0.2,1.4c0,0.6,0.1,1.7,0.1,2.1c0,0.1,0.1,0.2,0.2,0.5C25.2,4.6,25.2,4.6,25.2,4.1z"/>
	<path class="st2" d="M35.9,5.4c0-0.1-0.1-0.2-0.1-0.2c0,0,0-0.2-0.1-0.4c-0.1-0.6-0.3-1.1-0.8-1.8h-1.8L33,2.2h5.2V0.5l0.9,0.1
		c0.4,0,0.5,0.1,0.5,0.4c0,0.2-0.1,0.3-0.4,0.4v0.8h3.9l0.5-0.7l0.9,0.8v0.6H42L42.2,3c0.3,0.1,0.4,0.2,0.4,0.4
		c0,0.2-0.1,0.3-0.5,0.4c-0.4,0.8-0.5,0.9-1,1.6h2.6l0.5-0.7l0.9,0.8v0.6H32.4l-0.2-0.8H35.9z M42.5,6.7l0.6,0.4
		c0.4,0.3,0.4,0.3,0.4,0.6c0,0.2-0.1,0.3-0.4,0.4v5c0,0.2-0.3,0.4-0.7,0.4c-0.3,0-0.4-0.1-0.4-0.4v0h-6.6v0c0,0.2-0.3,0.4-0.7,0.4
		c-0.3,0-0.4-0.1-0.4-0.4V6.8l1.1,0.5H42L42.5,6.7z M35.4,9.8H42V8h-6.6V9.8z M35.4,12.3H42v-1.7h-6.6V12.3z M40.5,5.4
		C40.9,4.2,41,4,41.2,2.9h-5.5c0.8,0.7,1.2,1.1,1.2,1.6c0,0.3-0.1,0.6-0.3,0.8H40.5z"/>
	<path class="st2" d="M53.8,7.2L53.8,7.2c0,0.3-0.3,0.5-0.7,0.5c-0.3,0-0.4-0.1-0.4-0.4V1.5L53.8,2h0.6c0.2-0.7,0.2-0.8,0.4-1.5
		l0.8,0.2C56,0.7,56.1,0.8,56.1,1c0,0.2-0.1,0.3-0.5,0.4L55.2,2h1.7l0.5-0.6l0.6,0.4c0.4,0.3,0.4,0.4,0.4,0.6c0,0.2-0.1,0.3-0.4,0.4
		v4.3c0,0.2-0.3,0.4-0.7,0.4c-0.3,0-0.4-0.1-0.4-0.4h-1.4l0.3,0c0.4,0.1,0.6,0.2,0.6,0.4c0,0.2-0.1,0.3-0.4,0.4v0.4h4.5L61,7.8
		l0.9,0.8v0.6h-5.2c1.2,1.3,3,2.1,5.4,2.5l0,0.5c-0.5,0.2-0.6,0.4-0.9,0.9c-2.2-0.7-4-2-5.3-3.8v3.9c0,0.2-0.3,0.4-0.7,0.4
		c-0.3,0-0.4-0.1-0.4-0.4V9.6c-1.5,1.7-3.3,2.7-6,3.5l-0.2-0.5c2.4-1,4.1-2.1,5.3-3.4H49l-0.2-0.7h6V7.2H53.8z M52.7,5.4
		c-0.8,0.7-1.3,1-2.6,1.7c0,0.4-0.1,0.6-0.3,0.6c-0.2,0-0.3-0.1-0.4-0.5L49,6.3c1.6-0.5,2.3-0.8,3.5-1.4L52.7,5.4z M49.7,1.2
		c1.8,0.6,2.5,1.1,2.5,1.9c0,0.5-0.2,0.8-0.5,0.8c-0.2,0-0.2-0.1-0.4-0.3c-0.6-1-0.9-1.2-1.9-1.9L49.7,1.2z M53.8,4.1h3.1V2.7h-3.1
		V4.1z M53.8,6.5h3.1V4.9h-3.1V6.5z M61.1,1.6c0.3,0.2,0.4,0.3,0.4,0.5c0,0.2-0.1,0.2-0.6,0.3c-1,0.9-1.6,1.3-2.7,1.8L58,3.8
		c1.1-0.9,1.6-1.5,2.3-2.6L61.1,1.6z M58.4,4.7c2.2,0.6,3,1.1,3,2.1c0,0.4-0.2,0.6-0.4,0.6c-0.2,0-0.3-0.1-0.4-0.3
		c-0.8-1-1.1-1.2-2.4-1.9L58.4,4.7z"/>
	<path class="st2" d="M72.1,2.4c0.4,0.5,0.6,0.9,0.6,1.3c0,0.8-1,3.5-2,5.4c-1,1.9-1.7,2.6-2.4,2.6c-1.2,0-2.2-1.8-2.2-3.8
		c0-2.3,1.1-4.2,3-5.4c1.1-0.6,2.3-1,3.6-1c1.6,0,3,0.5,4,1.4c0.9,0.9,1.4,2,1.4,3.5c0,2.6-1.1,4.5-3.3,5.6
		c-0.7,0.3-1.5,0.6-1.8,0.6c-0.2,0-0.3-0.1-0.3-0.3c0-0.2,0.1-0.3,0.3-0.3c2.6-0.9,4-2.9,4-5.6c0-1.3-0.4-2.4-1.2-3.1
		c-0.8-0.7-1.8-1-2.9-1L72.1,2.4z M67.1,7.6c0,0.9,0.2,1.7,0.6,2.3c0.2,0.4,0.4,0.6,0.6,0.6c0.9,0,3.4-5.3,3.4-7.1
		c0-0.2,0-0.2-0.2-0.9C69,2.9,67.1,5.1,67.1,7.6z"/>
	<path class="st2" d="M85.5,6.1l0.8,0.1c0.4,0.1,0.5,0.1,0.5,0.4c0,0.2-0.1,0.3-0.4,0.4v0.5H88l0.5-0.6l0.8,0.8v0.6h-2.8v0.5
		c0.9,0.2,1.2,0.4,1.6,0.6c0.4,0.2,0.6,0.6,0.6,1c0,0.4-0.2,0.7-0.5,0.7c-0.2,0-0.3-0.1-0.5-0.4c-0.4-0.7-0.7-1-1.2-1.3v3.9
		c0,0.3-0.3,0.4-0.6,0.4c-0.3,0-0.4-0.1-0.4-0.4V10c-1,1.3-1.6,1.8-2.9,2.5l-0.3-0.4c1.3-1.1,2.3-2.3,3-3.8h-2.5l-0.2-0.8h2.9V6.1z
		 M83,2.9l-0.2-0.8h2.9V0.5l0.9,0.1c0.4,0,0.5,0.1,0.5,0.4c0,0.2-0.1,0.3-0.4,0.4v0.7h1.4l0.5-0.6l0.8,0.8v0.6h-1.5L88.4,3
		c0.3,0.1,0.4,0.2,0.4,0.3c0,0.2-0.1,0.3-0.4,0.3C88,4.4,88,4.5,87.6,5.3h0.7l0.5-0.6l0.8,0.8V6h-6.9l-0.2-0.8h2.1
		c-0.1-0.1-0.1-0.2-0.2-0.5c-0.2-0.9-0.3-1.1-0.7-1.8l0.2-0.2H83z M84.2,2.9C85,3.4,85.4,4,85.4,4.6c0,0.3-0.1,0.5-0.3,0.6h1.8
		c0.3-0.9,0.4-1.3,0.7-2.4H84.2z M94.2,5.1l0.5-0.5l0.8,0.7v0.6H94v7.2c0,0.2-0.3,0.4-0.7,0.4c-0.3,0-0.4-0.1-0.4-0.4V5.9h-2
		c0,4-0.7,5.8-3.3,7.6l-0.4-0.4c2.1-1.8,2.6-3.5,2.5-7.9V1.7l1.1,0.5c1.5-0.5,2.3-0.9,3.6-1.7l0.6,0.7c0.2,0.2,0.3,0.3,0.3,0.5
		C95.4,2,95.2,2,95,2c-0.1,0-0.2,0-0.4,0c-1.4,0.4-2.2,0.6-3.8,0.9v2.3H94.2z"/>
	<path class="st2" d="M101.4,1.3c0.5,0.2,0.8,0.4,0.8,0.7c0,0.1,0,0.2-0.1,0.5c-0.4,1-0.6,3.7-0.6,7c0,1.1,0.2,1.7,0.7,2.1
		c0.4,0.3,0.9,0.5,1.5,0.5c1.1,0,2.3-0.4,3.3-1.1c1.1-0.7,1.8-1.6,2.5-2.9c0.2-0.4,0.2-0.4,0.4-0.4c0.2,0,0.4,0.1,0.4,0.3
		c0,0.3-0.7,1.8-1.3,2.5c-1.2,1.6-3.3,2.7-5.3,2.7c-0.9,0-1.6-0.2-2.2-0.6c-0.7-0.5-1.1-1.4-1.1-2.7c0-0.9,0.1-4.2,0.2-5.3
		c0-0.7,0.1-1.4,0.1-1.9c0-0.5-0.1-0.7-0.6-1.1c-0.2-0.2-0.3-0.2-0.3-0.3c0-0.1,0.2-0.2,0.6-0.2C100.7,1,101,1.1,101.4,1.3z"/>
	<path class="st2" d="M115.9,3.4c0,0.1,0,0.2-0.2,0.5c-0.4,0.8-0.6,1.7-0.6,3c0,1.2,0.2,2.2,0.6,2.9c0.3,0.5,0.6,0.9,0.8,0.9
		c0.2,0,0.6-0.7,1.6-2.8c0.1-0.2,0.2-0.3,0.3-0.3c0.2,0,0.3,0.1,0.3,0.3c0,0.1,0,0.2-0.1,0.4c-0.6,1.5-1,2.6-1,2.9
		c0,0.1,0,0.2,0.1,0.4c0.1,0.3,0.1,0.4,0.1,0.5c0,0.3-0.2,0.5-0.6,0.5c-0.7,0-1.5-0.5-2.1-1.4c-0.8-1.1-1-2.4-1-4.9
		c0-0.6,0-1.2,0.1-1.8c0-0.4,0-0.8,0-1c0-0.4-0.1-0.6-0.4-1c-0.1-0.1-0.1-0.2-0.1-0.2c0-0.1,0.1-0.2,0.3-0.2
		C114.8,1.9,115.9,2.8,115.9,3.4z M123.6,4.5c1.2,1.2,2.3,3.6,2.3,5.2c0,0.8-0.3,1.3-0.8,1.3c-0.3,0-0.5-0.2-0.5-0.8
		c-0.3-3.1-1.1-4.8-2.6-6.1c-0.1-0.1-0.2-0.2-0.2-0.3c0-0.2,0.1-0.3,0.3-0.3C122.4,3.4,123,3.9,123.6,4.5z"/>
	<path class="st2" d="M136.2,0.5l0.6,0.4c0.4,0.3,0.4,0.4,0.4,0.6c0,0.2-0.1,0.2-0.4,0.4v3.3c0,0.2-0.3,0.4-0.7,0.4
		c-0.3,0-0.4-0.1-0.4-0.3h-3.2v7.9c0,0.2-0.3,0.4-0.7,0.4c-0.3,0-0.4-0.1-0.4-0.4V0.5l1.1,0.5h3.2L136.2,0.5z M132.6,2.7h3.2V1.8
		h-3.2V2.7z M132.6,4.4h3.2v-1h-3.2V4.4z M138.7,5.5c-0.3,0-0.4-0.1-0.4-0.4V0.5l1.1,0.5h3.1l0.5-0.6l0.6,0.4
		c0.4,0.3,0.4,0.4,0.4,0.6c0,0.2-0.1,0.3-0.4,0.4v10.4c0,0.5-0.1,0.8-0.5,1.1c-0.2,0.2-0.5,0.3-0.7,0.3c-0.2,0-0.2,0-0.2-0.3
		c-0.1-0.3-0.1-0.4-0.5-0.5l-0.5-0.1l0.1-0.5l0.6,0.1c0.2,0,0.4,0,0.5,0c0.1,0,0.2,0,0.2-0.2V5.2h-3.1c0,0-0.1,0.1-0.1,0.1
		c0,0,0,0-0.1,0.1l0.6,0.3c0.3,0.1,0.4,0.2,0.4,0.4c0,0.2-0.2,0.3-0.5,0.3L139,7h1.2l0.5-0.5l0.8,0.7v0.6h-3.7
		c0,0.7-0.1,0.9-0.1,1.3h2.9l0.5-0.6l0.8,0.7v0.6h-3.9c0.7,1.1,1.7,1.8,3,2.3l-0.1,0.4c-0.4,0.1-0.5,0.2-0.8,0.7
		c-1.3-0.8-2.1-1.8-2.6-3.1c-0.5,1.5-1.9,2.5-4.2,3.1l-0.2-0.4c1.9-0.8,3-1.7,3.4-2.9h-3.2L133.2,9h3.5c0.1-0.4,0.1-0.6,0.1-1.3
		h-3.3L133.4,7h2.5c-0.1-0.1-0.1-0.1-0.2-0.2c0,0,0-0.1-0.1-0.2c-0.2-0.4-0.4-0.6-1-1.1l0.2-0.3c1.3,0.3,1.9,0.7,1.9,1.3
		c0,0.2,0,0.2-0.1,0.4h1.7c0.4-0.7,0.4-0.8,0.7-1.5L138.7,5.5z M139.5,2.7h3.1V1.8h-3.1V2.7z M139.5,4.4h3.1v-1h-3.1V4.4z"/>
	<path class="st2" d="M150.6,13.1c0,0.2-0.3,0.4-0.7,0.4c-0.3,0-0.4-0.1-0.4-0.4V6c-0.5,0.7-0.8,1.1-1.5,1.7l-0.4-0.3
		c1.4-1.8,2.6-4.4,3.2-6.8l0.8,0.3c0.4,0.1,0.6,0.3,0.6,0.5c0,0.2-0.1,0.3-0.5,0.4c-0.5,1.2-0.6,1.4-1.1,2.5V13.1z M154.3,9.4
		c0.2,0.1,0.3,0.2,0.3,0.4c0,0.2-0.1,0.3-0.5,0.4c-0.9,1.3-1.8,2.2-2.9,2.9l-0.3-0.3c1.3-1.4,1.9-2.4,2.5-3.9L154.3,9.4z M151.1,7.7
		c1.6,0,2-0.1,3-0.1c1.6-1.6,2.7-3.2,3.7-4.9l0.8,0.4c0.3,0.2,0.4,0.3,0.4,0.4c0,0.2-0.1,0.3-0.4,0.3l-0.1,0
		c-1.2,1.5-2.4,2.8-3.5,3.7c1.7-0.1,1.9-0.1,3.6-0.3c-0.4-0.5-0.6-0.6-1-1.1l0.3-0.4c1.2,0.6,1.4,0.7,1.9,1.1
		c0.5,0.5,0.8,0.9,0.8,1.4c0,0.5-0.2,0.8-0.5,0.8c-0.2,0-0.3-0.1-0.5-0.4c-0.3-0.6-0.3-0.7-0.5-0.9c-1,0.2-1.3,0.2-2.6,0.4v5
		c0,0.2-0.3,0.4-0.7,0.4c-0.3,0-0.4-0.1-0.4-0.4V8.3c-1.1,0.1-1.5,0.2-3.2,0.3C152.1,9,152,9,151.8,9c-0.2,0-0.3-0.1-0.4-0.5
		L151.1,7.7z M155.6,3.2c-0.6,0.7-0.9,1-1.4,1.3c0.8,0.4,1.2,0.8,1.2,1.3c0,0.4-0.2,0.7-0.5,0.7c-0.2,0-0.3,0-0.4-0.2
		c-0.7-1-1.3-1.4-2.6-2l0.1-0.4c0.7,0.2,0.8,0.2,1.5,0.4c0.4-0.4,0.7-1,1.2-1.9c-1.2,0.1-1.4,0.1-2.8,0.1l0-0.5
		c3.5-0.3,5.8-0.8,7.3-1.5l0.7,0.6c0.2,0.1,0.2,0.2,0.2,0.4c0,0.2-0.1,0.3-0.3,0.3c-0.1,0-0.2,0-0.4-0.1c-1.4,0.3-2,0.4-3.9,0.7
		l0.2,0.1c0.3,0.2,0.4,0.3,0.4,0.4c0,0.2-0.1,0.3-0.4,0.3H155.6z M157.7,8.8c1.9,1.1,2.8,2.1,2.8,3.1c0,0.6-0.2,0.9-0.5,0.9
		c-0.3,0-0.4-0.1-0.6-0.6c-0.6-1.4-1-2-2-3L157.7,8.8z"/>
	<path class="st2" d="M171.1,10c0,1.1-0.2,1.5-0.6,1.5c-0.4,0-0.7-0.4-0.7-0.9c0-0.2,0-0.4,0.1-0.7c0.1-0.4,0.1-0.6,0.1-1.1
		c-1.9,0.9-2.7,1.5-2.7,2.3c0,0.4,0.2,0.7,0.8,0.9c0.5,0.2,1.1,0.2,1.9,0.2c1.2,0,2.2-0.1,2.8-0.3c0.3-0.1,0.4-0.1,0.6-0.1
		c0.5,0,1,0.4,1,0.8c0,0.2-0.2,0.4-0.5,0.4c-0.7,0.2-2,0.3-3.1,0.3c-1.4,0-2.4-0.1-3-0.3c-0.9-0.4-1.3-0.8-1.3-1.7
		c0-1.2,0.8-2,3.5-3.3c0-0.7-0.1-0.9-0.1-1.2c-0.2-0.4-0.4-0.6-0.8-0.6c-0.6,0-1.5,0.3-2.1,0.8c-0.5,0.4-1,0.8-1.5,1.6
		c-0.3,0.5-0.4,0.6-0.7,0.6c-0.4,0-0.5-0.3-0.5-0.9c0-0.5,0.1-0.7,0.6-1c0.8-0.5,1.5-1.4,2.6-3.1c-0.5,0.1-0.7,0.1-1,0.1
		c-0.5,0-1-0.2-1.5-0.6c-0.3-0.2-0.4-0.4-0.4-0.6c0-0.1,0.1-0.2,0.2-0.2c0.1,0,0.1,0,0.3,0.1c0.7,0.4,1,0.5,1.7,0.5
		c0.2,0,0.5,0,1.1-0.1c0.4-0.7,0.5-1.2,0.5-1.6c0-0.2-0.2-0.4-0.5-0.7c-0.1-0.1-0.1-0.1-0.1-0.1c0-0.1,0.3-0.2,0.5-0.2
		c0.7,0,1.6,0.6,1.6,1c0,0.2-0.1,0.3-0.4,0.7c-0.1,0.2-0.2,0.3-0.5,0.7c1.2-0.2,2.1-0.5,2.7-0.9c0.3-0.2,0.4-0.3,0.6-0.3
		c0.6,0,1,0.3,1,0.6c0,0.3-0.2,0.4-0.6,0.6c-1,0.3-2,0.5-4.2,0.9c-0.6,1-0.7,1.1-1.3,2c0.8-0.4,1.4-0.6,2.1-0.6
		c0.7,0,1.3,0.3,1.6,0.7c0.2,0.3,0.3,0.6,0.3,1.2c0.5-0.2,0.8-0.4,1-0.5c1.9-0.9,2.2-1.1,2.2-1.4c0-0.2,0-0.3-0.2-0.6
		c0-0.1,0-0.1,0-0.2c0-0.1,0.1-0.1,0.3-0.1c0.7,0,1.4,0.9,1.4,1.6c0,0.3-0.1,0.4-0.6,0.5c-1.4,0.4-2.6,0.8-4,1.5
		C171.1,9,171.1,9.6,171.1,10z"/>
	<path class="st2" d="M189.1,5.5c-0.8,0-2.1,0.1-3.2,0.2c0.5,0.4,0.6,0.6,0.6,0.8c0,0.1,0,0.1-0.1,0.3c-0.1,0.2-0.1,0.2-0.2,0.6
		c-0.6,2.4-1.3,3.8-2.5,5c-0.6,0.6-1.4,1.1-1.7,1.1c-0.2,0-0.3-0.1-0.3-0.3c0-0.2,0-0.2,0.3-0.4c0.7-0.5,1.4-1.3,1.9-2.2
		c0.7-1.2,1.2-3,1.2-4.1c0-0.2,0-0.3-0.3-0.7c-1.5,0.1-3.1,0.4-3.6,0.6c-0.3,0.1-0.3,0.1-0.4,0.1c-0.3,0-0.7-0.2-1-0.6
		c-0.3-0.3-0.4-0.5-0.4-0.8c0-0.2,0-0.3,0.1-0.3c0,0,0.1,0,0.2,0.1c0.4,0.2,0.8,0.3,1.3,0.3c0.3,0,0.7,0,1.7-0.1
		c1.6-0.2,2.9-0.3,3.9-0.4c1.5-0.1,2.1-0.2,2.6-0.4c0.3-0.1,0.5-0.2,0.6-0.2c0.6,0,1.4,0.5,1.4,0.9c0,0.3-0.3,0.5-1.2,0.5
		c-0.1,0-0.2,0-0.4,0H189.1z M181.6,1.7c0.4,0.2,0.7,0.3,1.1,0.3c0.8,0,1.8-0.1,3.1-0.3c0.7-0.1,0.9-0.1,1.2-0.3
		c0.2-0.1,0.3-0.1,0.4-0.1c0.6,0,1.2,0.4,1.2,0.8c0,0.4-0.3,0.5-1.4,0.5c-2.5,0.2-3.5,0.3-4.2,0.4c-0.3,0.1-0.4,0.1-0.5,0.1
		c-0.2,0-0.6-0.2-1-0.5c-0.2-0.2-0.3-0.4-0.3-0.7c0-0.2,0-0.3,0.1-0.3C181.4,1.6,181.5,1.6,181.6,1.7z M189.2,0.9
		c1.1,0.7,1.5,1.1,1.5,1.7c0,0.4-0.2,0.6-0.4,0.6c-0.2,0-0.3-0.1-0.4-0.3c-0.4-0.8-0.8-1.3-1.4-1.8c-0.2-0.2-0.2-0.2-0.2-0.3
		c0-0.1,0.1-0.2,0.2-0.2C188.6,0.5,188.8,0.6,189.2,0.9z M191,0.4c0.9,0.5,1.3,0.8,1.3,1.4c0,0.4-0.1,0.6-0.4,0.6
		c-0.2,0-0.3-0.1-0.6-0.6c-0.3-0.4-0.7-0.8-1.4-1.3c-0.1-0.1-0.2-0.2-0.2-0.3c0-0.1,0.1-0.2,0.3-0.2C190.1,0,190.4,0.1,191,0.4z"/>
	<path class="st2" d="M197.4,4.1c0-1.5-0.1-1.7-0.7-2.2c-0.1,0-0.1-0.1-0.1-0.1c0-0.1,0.2-0.2,0.5-0.2c0.7,0,1.6,0.6,1.6,1
		c0,0.1,0,0.2-0.1,0.3c-0.1,0.4-0.2,0.6-0.2,1.3v0.8c1.7-0.2,1.9-0.2,3.7-0.4c0-0.6,0-1.1,0-1.4c0-1.2,0-1.3-0.5-1.7
		c-0.2-0.2-0.2-0.2-0.2-0.2c0-0.1,0.3-0.2,0.7-0.2c0.7,0,1.7,0.5,1.7,0.9c0,0.1,0,0.2-0.1,0.4c-0.2,0.5-0.3,1.3-0.4,2.4
		c0.7,0,1.1-0.1,1.5-0.3c0.3-0.1,0.3-0.1,0.5-0.1c0.6,0,1.3,0.5,1.3,0.9c0,0.3-0.3,0.4-0.8,0.4c-0.2,0-0.5,0-0.8,0c-0.3,0-0.6,0-1,0
		h-0.7c-0.2,2.4-0.3,3.4-0.9,4.4c-0.7,1.3-1.9,2.4-3.6,3.1c-0.4,0.2-0.5,0.2-0.7,0.2c-0.2,0-0.3-0.1-0.3-0.3c0-0.1,0.1-0.2,0.2-0.3
		c3-1.6,3.9-3.3,4.1-7.2c-1.8,0.1-2,0.2-3.7,0.4v1.7c0,0,0,0.3,0,0.5c0,0.2,0,0.3,0,0.4c0,0.7-0.2,1.1-0.6,1.1c-0.4,0-0.9-0.6-0.9-1
		c0-0.1,0-0.3,0.1-0.5c0.2-0.6,0.3-1.1,0.3-1.7l0-0.4c-1,0.2-1.2,0.2-1.6,0.3c-0.4,0.1-0.4,0.1-0.5,0.1c-0.2,0-0.5-0.1-0.7-0.4
		c-0.4-0.3-0.6-0.6-0.6-0.9c0-0.2,0-0.3,0.1-0.3c0,0,0.1,0,0.1,0c0.4,0.3,0.8,0.4,1.1,0.4c0.3,0,0.6,0,2-0.2L197.4,4.1z M204.8,1.1
		c0.9,0.7,1.2,1.2,1.2,1.7c0,0.4-0.2,0.7-0.5,0.7c-0.2,0-0.3-0.1-0.4-0.4c-0.4-0.8-0.6-1.2-1.2-1.9c-0.2-0.2-0.2-0.2-0.2-0.3
		c0-0.1,0.1-0.2,0.2-0.2C204.2,0.7,204.4,0.7,204.8,1.1z M206.4,0.5c0.7,0.5,1,1,1,1.5c0,0.4-0.2,0.6-0.4,0.6
		c-0.2,0-0.3-0.1-0.4-0.3c-0.4-0.7-0.7-1.1-1.2-1.7c-0.2-0.2-0.2-0.2-0.2-0.3c0-0.1,0.1-0.2,0.2-0.2C205.6,0,205.9,0.2,206.4,0.5z"
		/>
	<path class="st2" d="M215.1,7c0-0.7,0-0.8-0.3-1.1c-1.3,0.8-2.7,1.5-3.7,1.9c-0.8,0.3-1.4,0.5-1.7,0.5c-0.2,0-0.3-0.1-0.3-0.3
		c0-0.2,0.1-0.3,0.5-0.4c1.9-0.7,4.2-2.2,6.4-4c1.3-1.1,1.7-1.6,1.7-2c0-0.1,0-0.3-0.1-0.4c-0.1-0.2-0.1-0.2-0.1-0.3
		c0-0.1,0.1-0.1,0.3-0.1c0.4,0,0.8,0.2,1.1,0.6c0.3,0.3,0.4,0.7,0.4,0.9c0,0.2-0.1,0.3-0.3,0.5c-0.2,0.1-0.6,0.4-1.4,1.1
		c-1,0.8-1,0.8-1.8,1.3c0.6,0.3,0.7,0.4,0.7,0.6c0,0.1,0,0.1-0.1,0.5c-0.1,0.3-0.2,0.8-0.2,1.7v2.4c0,0.2,0,0.6,0,1.1
		c0,0.3,0,0.5,0,0.7c0,0.8-0.2,1.2-0.6,1.2c-0.4,0-0.9-0.7-0.9-1.2c0-0.1,0-0.2,0.1-0.6c0.2-0.4,0.3-1.5,0.3-2.9V7z"/>
	<path class="st2" d="M225.3,10.8c0.3,0.2,0.4,0.3,0.6,0.3c0.4,0,1.4-0.5,3-1.4c1.7-1,3.1-2,4.3-3.1c0.8-0.8,1.7-1.8,2.2-2.4
		c0.4-0.5,0.4-0.5,0.5-0.5c0.2,0,0.3,0.1,0.3,0.3c0,0.2-0.3,0.7-1,1.6c-1,1.4-2,2.4-3.6,3.7c-1.4,1.1-1.8,1.4-3.9,2.5
		c-0.7,0.4-0.9,0.5-1.2,0.8c-0.2,0.1-0.3,0.2-0.4,0.2c-0.5,0-1.4-1-1.4-1.6c0-0.3,0.1-0.5,0.2-0.5C225,10.6,225.1,10.6,225.3,10.8z
		 M227.2,2.9c1,0.6,1.4,1.1,1.4,1.9c0,0.5-0.3,0.9-0.6,0.9c-0.3,0-0.4-0.1-0.8-0.8c-0.4-0.9-1.1-1.5-2-2.2c-0.2-0.1-0.2-0.2-0.2-0.3
		c0-0.2,0.1-0.3,0.3-0.3C225.6,2.1,226.4,2.4,227.2,2.9z"/>
	<path class="st2" d="M245.6,4.1c-2.6,0.3-3.8,0.5-4.5,0.7C240.7,5,240.5,5,240.4,5c-0.2,0-0.4-0.1-0.7-0.4c-0.4-0.4-0.6-0.7-0.6-1
		c0-0.2,0-0.3,0.1-0.3c0.1,0,0.1,0,0.3,0.2c0.3,0.3,0.7,0.4,1,0.4c0.3,0,2.2-0.2,5.1-0.5c0-0.9,0-1.4-0.1-1.5
		c-0.1-0.2-0.3-0.4-0.7-0.6c-0.1-0.1-0.2-0.1-0.2-0.2c0-0.1,0.3-0.2,0.6-0.2c0.4,0,0.9,0.1,1.3,0.3c0.3,0.2,0.4,0.3,0.4,0.5
		c0,0.1,0,0.2-0.1,0.4c-0.1,0.3-0.2,0.8-0.3,1.3c0.5-0.1,0.9-0.1,1.1-0.1c1.2-0.1,1.3-0.1,1.9-0.2c0.4-0.1,0.5-0.1,0.6-0.1
		c0.6,0,1.3,0.5,1.3,0.9c0,0.3-0.2,0.4-0.6,0.4c-0.2,0-0.4,0-0.6,0C249.5,4,249.4,4,248.7,4c-0.8,0-1.1,0-2.1,0.1l-0.1,2.7
		c0.2,0.6,0.3,1,0.3,1.7c0,1.7-0.6,3.1-1.7,3.8c-0.9,0.6-2.6,1.3-3.2,1.3c-0.2,0-0.3-0.1-0.3-0.3c0-0.2,0.1-0.3,0.3-0.3
		c2.2-0.7,3.4-1.7,3.6-2.9c-0.4,0.2-0.7,0.3-1.1,0.3c-1.4,0-2.4-1-2.4-2.4c0-1.5,0.9-2.4,2.3-2.4c0.5,0,0.8,0.1,1.2,0.3V4.1z
		 M242.9,8c0,0.9,0.6,1.6,1.4,1.6c0.5,0,1-0.3,1.1-0.7c0.1-0.2,0.1-0.6,0.1-1.3c0-0.6-0.1-0.8-0.3-1c-0.2-0.2-0.6-0.3-0.9-0.3
		C243.4,6.3,242.9,6.9,242.9,8z"/>
	<path class="st2" d="M257.1,3c-0.3,0.2-0.4,0.2-0.6,0.2c-0.4,0-1.2-0.9-1.2-1.4c0-0.2,0.1-0.4,0.2-0.4c0.1,0,0.1,0,0.3,0.2
		c0.3,0.3,0.6,0.4,0.9,0.4c0.2,0,2.2-0.3,2.9-0.4c0.5-0.1,0.7-0.2,0.9-0.3c0.3-0.2,0.4-0.2,0.6-0.2c0.4,0,1.1,0.7,1.1,1
		c0,0.2-0.1,0.2-0.5,0.4c-0.3,0.1-0.7,0.5-4,4c1.2-0.5,2.2-0.7,3.3-0.7c2.3,0,3.7,1.2,3.7,3.1c0,2.4-2,3.9-5,3.9
		c-2.2,0-3.6-0.8-3.6-2.1c0-0.9,0.7-1.5,1.7-1.5c1.4,0,2.9,1.1,2.9,2.2c0,0.1,0,0.2-0.1,0.4c1.7-0.4,2.8-1.6,2.8-3
		c0-1.4-1-2.4-2.6-2.4c-1.2,0-2.5,0.4-3.7,1.1c-0.7,0.4-1.3,0.9-1.9,1.6c-0.4,0.4-0.5,0.5-0.8,0.5c-0.3,0-0.5-0.3-0.5-0.8
		c0-0.4,0.1-0.7,0.3-0.9c0.1-0.1,0.2-0.2,0.7-0.5c1.6-0.9,4-3.3,5.4-5.5C258.7,2.5,257.4,2.8,257.1,3z M259.7,12.1
		c-0.2-0.7-0.4-1-0.7-1.3c-0.4-0.4-0.8-0.7-1.3-0.7c-0.5,0-0.9,0.3-0.9,0.8c0,0.7,1.2,1.3,2.4,1.3L259.7,12.1z"/>
	<path class="st2" d="M272.6,11.3c0,1.2-1,2.2-2.2,2.2c-1.2,0-2.2-1-2.2-2.2c0-1.2,1-2.2,2.3-2.2C271.6,9.1,272.6,10.1,272.6,11.3z
		 M268.9,11.3c0,0.8,0.7,1.5,1.5,1.5c0.8,0,1.5-0.7,1.5-1.5c0-0.8-0.7-1.5-1.5-1.5C269.6,9.9,268.9,10.5,268.9,11.3z"/>
</g>
</svg>
