<!-- Generated by IcoMoon.io -->
<svg version="1.1" xmlns="http://www.w3.org/2000/svg" width="32" height="32" viewBox="0 0 32 32">
<title>zenn</title>
<path d="M0.352 31.695h6.645c0.352 0 0.664-0.196 0.86-0.469l18.295-30.060c0.235-0.391-0.039-0.86-0.508-0.86h-6.293c-0.313 0-0.587 0.156-0.743 0.431l-18.568 30.412c-0.117 0.235 0.039 0.547 0.312 0.547zM23.26 31.225l8.639-13.877c0.273-0.431-0.039-0.977-0.547-0.977h-6.255c-0.235 0-0.469 0.117-0.587 0.313l-8.873 14.191c-0.235 0.352 0.039 0.821 0.469 0.821h6.372c0.312-0.001 0.624-0.157 0.781-0.471z"></path>
</svg>
